<mxfile host="app.diagrams.net" modified="2022-03-14T02:10:57.576Z" agent="5.0 (Windows)" etag="U72W3_sop2s5XxOJBHCD" version="17.1.2" type="github">
  <diagram id="C5RBs43oDa-KdzZeNtuy" name="Page-1">
    <mxGraphModel dx="782" dy="420" grid="1" gridSize="10" guides="1" tooltips="1" connect="1" arrows="1" fold="1" page="1" pageScale="1" pageWidth="827" pageHeight="1169" math="0" shadow="0">
      <root>
        <mxCell id="WIyWlLk6GJQsqaUBKTNV-0" />
        <mxCell id="WIyWlLk6GJQsqaUBKTNV-1" parent="WIyWlLk6GJQsqaUBKTNV-0" />
        <mxCell id="ajwV6dS2JG4uUu-BuwZX-3" value="" style="edgeStyle=orthogonalEdgeStyle;rounded=0;orthogonalLoop=1;jettySize=auto;html=1;" edge="1" parent="WIyWlLk6GJQsqaUBKTNV-1" source="ajwV6dS2JG4uUu-BuwZX-0" target="ajwV6dS2JG4uUu-BuwZX-2">
          <mxGeometry relative="1" as="geometry" />
        </mxCell>
        <mxCell id="ajwV6dS2JG4uUu-BuwZX-0" value="Start" style="rounded=1;whiteSpace=wrap;html=1;" vertex="1" parent="WIyWlLk6GJQsqaUBKTNV-1">
          <mxGeometry x="320" y="80" width="120" height="60" as="geometry" />
        </mxCell>
        <mxCell id="ajwV6dS2JG4uUu-BuwZX-5" value="" style="edgeStyle=orthogonalEdgeStyle;rounded=0;orthogonalLoop=1;jettySize=auto;html=1;" edge="1" parent="WIyWlLk6GJQsqaUBKTNV-1" source="ajwV6dS2JG4uUu-BuwZX-2" target="ajwV6dS2JG4uUu-BuwZX-4">
          <mxGeometry relative="1" as="geometry" />
        </mxCell>
        <mxCell id="ajwV6dS2JG4uUu-BuwZX-2" value="Input &quot;Name&quot;" style="shape=parallelogram;perimeter=parallelogramPerimeter;whiteSpace=wrap;html=1;fixedSize=1;" vertex="1" parent="WIyWlLk6GJQsqaUBKTNV-1">
          <mxGeometry x="320" y="190" width="120" height="60" as="geometry" />
        </mxCell>
        <mxCell id="ajwV6dS2JG4uUu-BuwZX-7" value="" style="edgeStyle=orthogonalEdgeStyle;rounded=0;orthogonalLoop=1;jettySize=auto;html=1;" edge="1" parent="WIyWlLk6GJQsqaUBKTNV-1" source="ajwV6dS2JG4uUu-BuwZX-4" target="ajwV6dS2JG4uUu-BuwZX-6">
          <mxGeometry relative="1" as="geometry" />
        </mxCell>
        <mxCell id="ajwV6dS2JG4uUu-BuwZX-4" value="&lt;div&gt;Display &quot;Hello, I&#39;m Name&quot;&lt;/div&gt;" style="shape=parallelogram;perimeter=parallelogramPerimeter;whiteSpace=wrap;html=1;fixedSize=1;" vertex="1" parent="WIyWlLk6GJQsqaUBKTNV-1">
          <mxGeometry x="280" y="300" width="200" height="60" as="geometry" />
        </mxCell>
        <mxCell id="ajwV6dS2JG4uUu-BuwZX-9" value="" style="edgeStyle=orthogonalEdgeStyle;rounded=0;orthogonalLoop=1;jettySize=auto;html=1;" edge="1" parent="WIyWlLk6GJQsqaUBKTNV-1" source="ajwV6dS2JG4uUu-BuwZX-6" target="ajwV6dS2JG4uUu-BuwZX-8">
          <mxGeometry relative="1" as="geometry" />
        </mxCell>
        <mxCell id="ajwV6dS2JG4uUu-BuwZX-6" value="Input &quot;Year&quot;" style="shape=parallelogram;perimeter=parallelogramPerimeter;whiteSpace=wrap;html=1;fixedSize=1;" vertex="1" parent="WIyWlLk6GJQsqaUBKTNV-1">
          <mxGeometry x="320" y="410" width="120" height="60" as="geometry" />
        </mxCell>
        <mxCell id="ajwV6dS2JG4uUu-BuwZX-11" value="" style="edgeStyle=orthogonalEdgeStyle;rounded=0;orthogonalLoop=1;jettySize=auto;html=1;" edge="1" parent="WIyWlLk6GJQsqaUBKTNV-1" source="ajwV6dS2JG4uUu-BuwZX-8" target="ajwV6dS2JG4uUu-BuwZX-10">
          <mxGeometry relative="1" as="geometry" />
        </mxCell>
        <mxCell id="ajwV6dS2JG4uUu-BuwZX-8" value="Age = 2022 - Year " style="whiteSpace=wrap;html=1;" vertex="1" parent="WIyWlLk6GJQsqaUBKTNV-1">
          <mxGeometry x="320" y="520" width="120" height="60" as="geometry" />
        </mxCell>
        <mxCell id="ajwV6dS2JG4uUu-BuwZX-15" value="" style="edgeStyle=orthogonalEdgeStyle;rounded=0;orthogonalLoop=1;jettySize=auto;html=1;" edge="1" parent="WIyWlLk6GJQsqaUBKTNV-1" source="ajwV6dS2JG4uUu-BuwZX-10" target="ajwV6dS2JG4uUu-BuwZX-14">
          <mxGeometry relative="1" as="geometry" />
        </mxCell>
        <mxCell id="ajwV6dS2JG4uUu-BuwZX-10" value="Display Age" style="shape=parallelogram;perimeter=parallelogramPerimeter;whiteSpace=wrap;html=1;fixedSize=1;" vertex="1" parent="WIyWlLk6GJQsqaUBKTNV-1">
          <mxGeometry x="320" y="630" width="120" height="60" as="geometry" />
        </mxCell>
        <mxCell id="ajwV6dS2JG4uUu-BuwZX-14" value="End" style="rounded=1;whiteSpace=wrap;html=1;" vertex="1" parent="WIyWlLk6GJQsqaUBKTNV-1">
          <mxGeometry x="320" y="730" width="120" height="60" as="geometry" />
        </mxCell>
      </root>
    </mxGraphModel>
  </diagram>
</mxfile>
